<mxfile host="app.diagrams.net" modified="2024-05-01T03:51:47.821Z" agent="Mozilla/5.0 (Windows NT 10.0; Win64; x64) AppleWebKit/537.36 (KHTML, like Gecko) Chrome/124.0.0.0 Safari/537.36" version="24.3.1" etag="02sV7lCd5zUKw8X21tx8" type="github">
  <diagram name="第 1 页" id="hSuMys9xjdjStKDhxfNM">
    <mxGraphModel>
      <root>
        <mxCell id="0" />
        <mxCell id="1" parent="0" />
      </root>
    </mxGraphModel>
  </diagram>
</mxfile>
